<mxfile host="app.diagrams.net" modified="2024-06-22T03:28:27.099Z" agent="Mozilla/5.0 (Windows NT 10.0; Win64; x64) AppleWebKit/537.36 (KHTML, like Gecko) Chrome/125.0.0.0 Safari/537.36" etag="k8KHVvMrCZn70ccxjgI5" version="24.6.0" type="device">
  <diagram name="Page-1" id="u8gCsYLMEfg0d5SAuLZ-">
    <mxGraphModel dx="6449" dy="3056" grid="0" gridSize="10" guides="1" tooltips="1" connect="1" arrows="1" fold="1" page="0" pageScale="1" pageWidth="850" pageHeight="1100" math="0" shadow="0">
      <root>
        <mxCell id="0" />
        <mxCell id="1" parent="0" />
        <mxCell id="kmCiaJnC8KgpyMPa5WiL-1" value="" style="edgeStyle=none;rounded=0;orthogonalLoop=1;jettySize=auto;html=1;dashed=1;fontSize=18;" parent="1" source="kmCiaJnC8KgpyMPa5WiL-3" target="kmCiaJnC8KgpyMPa5WiL-10" edge="1">
          <mxGeometry relative="1" as="geometry">
            <mxPoint x="-4070" y="-1297" as="targetPoint" />
          </mxGeometry>
        </mxCell>
        <mxCell id="kmCiaJnC8KgpyMPa5WiL-2" value="" style="edgeStyle=none;rounded=0;orthogonalLoop=1;jettySize=auto;html=1;dashed=1;fontSize=18;" parent="1" source="kmCiaJnC8KgpyMPa5WiL-3" target="kmCiaJnC8KgpyMPa5WiL-27" edge="1">
          <mxGeometry relative="1" as="geometry">
            <mxPoint x="-4139" y="-1287" as="targetPoint" />
          </mxGeometry>
        </mxCell>
        <mxCell id="kmCiaJnC8KgpyMPa5WiL-3" value="" style="sketch=0;outlineConnect=0;fontColor=#232F3E;gradientColor=none;fillColor=#232F3D;strokeColor=none;dashed=0;verticalLabelPosition=bottom;verticalAlign=top;align=center;html=1;fontSize=18;fontStyle=0;aspect=fixed;pointerEvents=1;shape=mxgraph.aws4.user;" parent="1" vertex="1">
          <mxGeometry x="-4159" y="-1640" width="80" height="80" as="geometry" />
        </mxCell>
        <mxCell id="kmCiaJnC8KgpyMPa5WiL-4" value="" style="edgeStyle=none;rounded=0;orthogonalLoop=1;jettySize=auto;html=1;dashed=1;fontSize=18;" parent="1" source="kmCiaJnC8KgpyMPa5WiL-7" target="kmCiaJnC8KgpyMPa5WiL-11" edge="1">
          <mxGeometry relative="1" as="geometry">
            <mxPoint x="-3708" y="-1297" as="targetPoint" />
          </mxGeometry>
        </mxCell>
        <mxCell id="kmCiaJnC8KgpyMPa5WiL-5" value="" style="edgeStyle=none;rounded=0;orthogonalLoop=1;jettySize=auto;html=1;dashed=1;fontSize=18;" parent="1" source="kmCiaJnC8KgpyMPa5WiL-7" target="kmCiaJnC8KgpyMPa5WiL-12" edge="1">
          <mxGeometry relative="1" as="geometry">
            <mxPoint x="-3708" y="-1297" as="targetPoint" />
          </mxGeometry>
        </mxCell>
        <mxCell id="kmCiaJnC8KgpyMPa5WiL-6" value="" style="edgeStyle=none;rounded=0;orthogonalLoop=1;jettySize=auto;html=1;dashed=1;fontSize=18;" parent="1" source="kmCiaJnC8KgpyMPa5WiL-7" target="kmCiaJnC8KgpyMPa5WiL-13" edge="1">
          <mxGeometry relative="1" as="geometry">
            <mxPoint x="-3685" y="-1427" as="targetPoint" />
          </mxGeometry>
        </mxCell>
        <mxCell id="kmCiaJnC8KgpyMPa5WiL-7" value="" style="sketch=0;outlineConnect=0;fontColor=#232F3E;gradientColor=none;fillColor=#232F3D;strokeColor=none;dashed=0;verticalLabelPosition=bottom;verticalAlign=top;align=center;html=1;fontSize=18;fontStyle=0;aspect=fixed;pointerEvents=1;shape=mxgraph.aws4.user;" parent="1" vertex="1">
          <mxGeometry x="-3640" y="-1640" width="80" height="80" as="geometry" />
        </mxCell>
        <mxCell id="kmCiaJnC8KgpyMPa5WiL-8" value="" style="edgeStyle=none;rounded=0;orthogonalLoop=1;jettySize=auto;html=1;dashed=1;fontSize=18;" parent="1" source="kmCiaJnC8KgpyMPa5WiL-9" target="kmCiaJnC8KgpyMPa5WiL-13" edge="1">
          <mxGeometry relative="1" as="geometry">
            <mxPoint x="-2947" y="-1280.9999999999998" as="targetPoint" />
          </mxGeometry>
        </mxCell>
        <mxCell id="kmCiaJnC8KgpyMPa5WiL-9" value="" style="sketch=0;outlineConnect=0;fontColor=#232F3E;gradientColor=none;fillColor=#232F3D;strokeColor=none;dashed=0;verticalLabelPosition=bottom;verticalAlign=top;align=center;html=1;fontSize=18;fontStyle=0;aspect=fixed;pointerEvents=1;shape=mxgraph.aws4.user;" parent="1" vertex="1">
          <mxGeometry x="-3320" y="-1640" width="80" height="80" as="geometry" />
        </mxCell>
        <mxCell id="kmCiaJnC8KgpyMPa5WiL-10" value="" style="sketch=0;outlineConnect=0;fontColor=#232F3E;gradientColor=none;fillColor=#232F3D;strokeColor=none;dashed=0;verticalLabelPosition=bottom;verticalAlign=top;align=center;html=1;fontSize=18;fontStyle=0;aspect=fixed;pointerEvents=1;shape=mxgraph.aws4.user;" parent="1" vertex="1">
          <mxGeometry x="-4159" y="-1480" width="80" height="80" as="geometry" />
        </mxCell>
        <mxCell id="kmCiaJnC8KgpyMPa5WiL-11" value="" style="sketch=0;outlineConnect=0;fontColor=#232F3E;gradientColor=none;fillColor=#232F3D;strokeColor=none;dashed=0;verticalLabelPosition=bottom;verticalAlign=top;align=center;html=1;fontSize=18;fontStyle=0;aspect=fixed;pointerEvents=1;shape=mxgraph.aws4.user;" parent="1" vertex="1">
          <mxGeometry x="-3800" y="-1480" width="80" height="80" as="geometry" />
        </mxCell>
        <mxCell id="kmCiaJnC8KgpyMPa5WiL-12" value="" style="sketch=0;outlineConnect=0;fontColor=#232F3E;gradientColor=none;fillColor=#232F3D;strokeColor=none;dashed=0;verticalLabelPosition=bottom;verticalAlign=top;align=center;html=1;fontSize=18;fontStyle=0;aspect=fixed;pointerEvents=1;shape=mxgraph.aws4.user;" parent="1" vertex="1">
          <mxGeometry x="-3640" y="-1480" width="80" height="80" as="geometry" />
        </mxCell>
        <mxCell id="kmCiaJnC8KgpyMPa5WiL-13" value="" style="sketch=0;outlineConnect=0;fontColor=#232F3E;gradientColor=none;fillColor=#232F3D;strokeColor=none;dashed=0;verticalLabelPosition=bottom;verticalAlign=top;align=center;html=1;fontSize=18;fontStyle=0;aspect=fixed;pointerEvents=1;shape=mxgraph.aws4.user;" parent="1" vertex="1">
          <mxGeometry x="-3480" y="-1480" width="80" height="80" as="geometry" />
        </mxCell>
        <mxCell id="kmCiaJnC8KgpyMPa5WiL-18" value="" style="edgeStyle=none;rounded=0;orthogonalLoop=1;jettySize=auto;html=1;dashed=1;fontSize=18;" parent="1" source="kmCiaJnC8KgpyMPa5WiL-22" target="kmCiaJnC8KgpyMPa5WiL-7" edge="1">
          <mxGeometry relative="1" as="geometry">
            <mxPoint x="-4544" y="-1658" as="targetPoint" />
          </mxGeometry>
        </mxCell>
        <mxCell id="kmCiaJnC8KgpyMPa5WiL-19" value="" style="edgeStyle=none;rounded=0;orthogonalLoop=1;jettySize=auto;html=1;dashed=1;fontSize=18;" parent="1" source="kmCiaJnC8KgpyMPa5WiL-22" target="kmCiaJnC8KgpyMPa5WiL-3" edge="1">
          <mxGeometry relative="1" as="geometry">
            <mxPoint x="-4544" y="-1658" as="targetPoint" />
          </mxGeometry>
        </mxCell>
        <mxCell id="kmCiaJnC8KgpyMPa5WiL-20" value="" style="edgeStyle=none;rounded=0;orthogonalLoop=1;jettySize=auto;html=1;dashed=1;fontSize=18;" parent="1" source="kmCiaJnC8KgpyMPa5WiL-22" target="kmCiaJnC8KgpyMPa5WiL-9" edge="1">
          <mxGeometry relative="1" as="geometry">
            <mxPoint x="-4420.363636363636" y="-1788" as="targetPoint" />
          </mxGeometry>
        </mxCell>
        <mxCell id="BnxxXikciIUYKpJkku8m-3" value="" style="rounded=0;orthogonalLoop=1;jettySize=auto;html=1;dashed=1;" parent="1" source="kmCiaJnC8KgpyMPa5WiL-22" target="BnxxXikciIUYKpJkku8m-1" edge="1">
          <mxGeometry relative="1" as="geometry">
            <mxPoint x="-3880" y="-1760" as="targetPoint" />
          </mxGeometry>
        </mxCell>
        <mxCell id="kmCiaJnC8KgpyMPa5WiL-22" value="" style="sketch=0;outlineConnect=0;fontColor=#232F3E;gradientColor=none;fillColor=#232F3D;strokeColor=none;dashed=0;verticalLabelPosition=bottom;verticalAlign=top;align=center;html=1;fontSize=18;fontStyle=0;aspect=fixed;pointerEvents=1;shape=mxgraph.aws4.user;" parent="1" vertex="1">
          <mxGeometry x="-3640" y="-1800" width="80" height="80" as="geometry" />
        </mxCell>
        <mxCell id="kmCiaJnC8KgpyMPa5WiL-23" style="edgeStyle=none;rounded=0;orthogonalLoop=1;jettySize=auto;html=1;exitX=0.5;exitY=1;exitDx=0;exitDy=0;fontSize=18;" parent="1" edge="1">
          <mxGeometry relative="1" as="geometry">
            <mxPoint x="-3614.999999999999" y="-1569" as="sourcePoint" />
            <mxPoint x="-3614.999999999999" y="-1569" as="targetPoint" />
          </mxGeometry>
        </mxCell>
        <mxCell id="kmCiaJnC8KgpyMPa5WiL-27" value="" style="sketch=0;outlineConnect=0;fontColor=#232F3E;gradientColor=none;fillColor=#232F3D;strokeColor=none;dashed=0;verticalLabelPosition=bottom;verticalAlign=top;align=center;html=1;fontSize=18;fontStyle=0;aspect=fixed;pointerEvents=1;shape=mxgraph.aws4.user;" parent="1" vertex="1">
          <mxGeometry x="-3999" y="-1480" width="80" height="80" as="geometry" />
        </mxCell>
        <mxCell id="kmCiaJnC8KgpyMPa5WiL-31" value="&lt;span style=&quot;color: rgb(35, 47, 62); font-family: Helvetica; font-size: 18px; font-style: normal; font-variant-ligatures: normal; font-variant-caps: normal; font-weight: 400; letter-spacing: normal; orphans: 2; text-indent: 0px; text-transform: none; widows: 2; word-spacing: 0px; -webkit-text-stroke-width: 0px; white-space: nowrap; background-color: rgb(255, 255, 255); text-decoration-thickness: initial; text-decoration-style: initial; text-decoration-color: initial; float: none; display: inline !important;&quot;&gt;Senior Full Stack Developer&lt;/span&gt;" style="text;whiteSpace=wrap;html=1;align=center;fontSize=18;" parent="1" vertex="1">
          <mxGeometry x="-4380" y="-1615" width="221" height="30" as="geometry" />
        </mxCell>
        <mxCell id="kmCiaJnC8KgpyMPa5WiL-33" value="&lt;span style=&quot;color: rgb(35, 47, 62); font-family: Helvetica; font-size: 18px; font-style: normal; font-variant-ligatures: normal; font-variant-caps: normal; font-weight: 400; letter-spacing: normal; orphans: 2; text-indent: 0px; text-transform: none; widows: 2; word-spacing: 0px; -webkit-text-stroke-width: 0px; white-space: nowrap; background-color: rgb(255, 255, 255); text-decoration-thickness: initial; text-decoration-style: initial; text-decoration-color: initial; float: none; display: inline !important;&quot;&gt;Project Manager&lt;/span&gt;" style="text;whiteSpace=wrap;html=1;align=center;fontSize=18;" parent="1" vertex="1">
          <mxGeometry x="-3680" y="-1840" width="160" height="30" as="geometry" />
        </mxCell>
        <mxCell id="kmCiaJnC8KgpyMPa5WiL-34" value="&lt;span style=&quot;color: rgb(35, 47, 62); font-family: Helvetica; font-size: 18px; font-style: normal; font-variant-ligatures: normal; font-variant-caps: normal; font-weight: 400; letter-spacing: normal; orphans: 2; text-indent: 0px; text-transform: none; widows: 2; word-spacing: 0px; -webkit-text-stroke-width: 0px; white-space: nowrap; background-color: rgb(255, 255, 255); text-decoration-thickness: initial; text-decoration-style: initial; text-decoration-color: initial; float: none; display: inline !important;&quot;&gt;Senior Backend Developer&lt;/span&gt;" style="text;whiteSpace=wrap;html=1;align=center;fontSize=18;" parent="1" vertex="1">
          <mxGeometry x="-3860" y="-1615" width="215" height="30" as="geometry" />
        </mxCell>
        <mxCell id="kmCiaJnC8KgpyMPa5WiL-42" value="Junior Frontend Developer 1" style="text;whiteSpace=wrap;align=center;fontSize=18;verticalAlign=top;" parent="1" vertex="1">
          <mxGeometry x="-4184" y="-1400" width="130" height="50" as="geometry" />
        </mxCell>
        <mxCell id="kmCiaJnC8KgpyMPa5WiL-43" value="Junior Frontend Developer 2" style="text;whiteSpace=wrap;align=center;fontSize=18;verticalAlign=top;" parent="1" vertex="1">
          <mxGeometry x="-4024" y="-1400" width="130" height="50" as="geometry" />
        </mxCell>
        <mxCell id="kmCiaJnC8KgpyMPa5WiL-44" value="Junior Backend Developer 1" style="text;whiteSpace=wrap;align=center;fontSize=18;verticalAlign=top;" parent="1" vertex="1">
          <mxGeometry x="-3825" y="-1400" width="130" height="50" as="geometry" />
        </mxCell>
        <mxCell id="kmCiaJnC8KgpyMPa5WiL-45" value="Junior Backend Developer 2" style="text;whiteSpace=wrap;align=center;fontSize=18;verticalAlign=top;" parent="1" vertex="1">
          <mxGeometry x="-3665" y="-1400" width="130" height="50" as="geometry" />
        </mxCell>
        <mxCell id="kmCiaJnC8KgpyMPa5WiL-46" value="Serverless Developer" style="text;whiteSpace=wrap;align=center;fontSize=18;verticalAlign=top;" parent="1" vertex="1">
          <mxGeometry x="-3505" y="-1400" width="130" height="50" as="geometry" />
        </mxCell>
        <mxCell id="2Th5IdEk0vzJODBJxVTx-2" value="Solutions Architect" style="text;whiteSpace=wrap;align=center;fontSize=18;verticalAlign=top;" parent="1" vertex="1">
          <mxGeometry x="-3120" y="-1560" width="80" height="60" as="geometry" />
        </mxCell>
        <mxCell id="BnxxXikciIUYKpJkku8m-1" value="" style="sketch=0;outlineConnect=0;fontColor=#232F3E;gradientColor=none;fillColor=#232F3D;strokeColor=none;dashed=0;verticalLabelPosition=bottom;verticalAlign=top;align=center;html=1;fontSize=18;fontStyle=0;aspect=fixed;pointerEvents=1;shape=mxgraph.aws4.user;" parent="1" vertex="1">
          <mxGeometry x="-3120" y="-1640" width="80" height="80" as="geometry" />
        </mxCell>
        <mxCell id="BnxxXikciIUYKpJkku8m-4" value="DevOps Engineer" style="text;whiteSpace=wrap;align=center;fontSize=18;verticalAlign=top;" parent="1" vertex="1">
          <mxGeometry x="-3320" y="-1560" width="80" height="60" as="geometry" />
        </mxCell>
        <mxCell id="BnxxXikciIUYKpJkku8m-8" value="" style="rounded=0;orthogonalLoop=1;jettySize=auto;html=1;dashed=1;" parent="1" source="kmCiaJnC8KgpyMPa5WiL-3" target="BnxxXikciIUYKpJkku8m-5" edge="1">
          <mxGeometry relative="1" as="geometry" />
        </mxCell>
        <mxCell id="BnxxXikciIUYKpJkku8m-5" value="" style="sketch=0;outlineConnect=0;fontColor=#232F3E;gradientColor=none;fillColor=#232F3D;strokeColor=none;dashed=0;verticalLabelPosition=bottom;verticalAlign=top;align=center;html=1;fontSize=18;fontStyle=0;aspect=fixed;pointerEvents=1;shape=mxgraph.aws4.user;" parent="1" vertex="1">
          <mxGeometry x="-4321" y="-1480" width="80" height="80" as="geometry" />
        </mxCell>
        <mxCell id="BnxxXikciIUYKpJkku8m-6" value="UX/UI Designer" style="text;whiteSpace=wrap;align=center;fontSize=18;verticalAlign=top;" parent="1" vertex="1">
          <mxGeometry x="-4346" y="-1400" width="130" height="50" as="geometry" />
        </mxCell>
      </root>
    </mxGraphModel>
  </diagram>
</mxfile>
